%TF.GenerationSoftware,KiCad,Pcbnew,9.0.5*%
%TF.CreationDate,2026-05-14T20:25:22+05:30*%
%TF.ProjectId,Rhenium-Hub,5268656e-6975-46d2-9d48-75622e6b6963,rev?*%
%TF.SameCoordinates,Original*%
%TF.FileFunction,Legend,Top*%
%TF.FilePolarity,Positive*%
%FSLAX46Y46*%
G04 Gerber Fmt 4.6, Leading zero omitted, Abs format (unit mm)*
G04 Created by KiCad (PCBNEW 9.0.5) date 2026-05-14 20:25:22*
%MOMM*%
%LPD*%
G01*
G04 APERTURE LIST*
%ADD10C,0.150000*%
%ADD11C,0.000000*%
%ADD12C,0.120000*%
G04 APERTURE END LIST*
D10*
X92687319Y-98149166D02*
X92211128Y-98482499D01*
X92687319Y-98720594D02*
X91687319Y-98720594D01*
X91687319Y-98720594D02*
X91687319Y-98339642D01*
X91687319Y-98339642D02*
X91734938Y-98244404D01*
X91734938Y-98244404D02*
X91782557Y-98196785D01*
X91782557Y-98196785D02*
X91877795Y-98149166D01*
X91877795Y-98149166D02*
X92020652Y-98149166D01*
X92020652Y-98149166D02*
X92115890Y-98196785D01*
X92115890Y-98196785D02*
X92163509Y-98244404D01*
X92163509Y-98244404D02*
X92211128Y-98339642D01*
X92211128Y-98339642D02*
X92211128Y-98720594D01*
X91687319Y-97815832D02*
X91687319Y-97196785D01*
X91687319Y-97196785D02*
X92068271Y-97530118D01*
X92068271Y-97530118D02*
X92068271Y-97387261D01*
X92068271Y-97387261D02*
X92115890Y-97292023D01*
X92115890Y-97292023D02*
X92163509Y-97244404D01*
X92163509Y-97244404D02*
X92258747Y-97196785D01*
X92258747Y-97196785D02*
X92496842Y-97196785D01*
X92496842Y-97196785D02*
X92592080Y-97244404D01*
X92592080Y-97244404D02*
X92639700Y-97292023D01*
X92639700Y-97292023D02*
X92687319Y-97387261D01*
X92687319Y-97387261D02*
X92687319Y-97672975D01*
X92687319Y-97672975D02*
X92639700Y-97768213D01*
X92639700Y-97768213D02*
X92592080Y-97815832D01*
X117929580Y-87166666D02*
X117977200Y-87214285D01*
X117977200Y-87214285D02*
X118024819Y-87357142D01*
X118024819Y-87357142D02*
X118024819Y-87452380D01*
X118024819Y-87452380D02*
X117977200Y-87595237D01*
X117977200Y-87595237D02*
X117881961Y-87690475D01*
X117881961Y-87690475D02*
X117786723Y-87738094D01*
X117786723Y-87738094D02*
X117596247Y-87785713D01*
X117596247Y-87785713D02*
X117453390Y-87785713D01*
X117453390Y-87785713D02*
X117262914Y-87738094D01*
X117262914Y-87738094D02*
X117167676Y-87690475D01*
X117167676Y-87690475D02*
X117072438Y-87595237D01*
X117072438Y-87595237D02*
X117024819Y-87452380D01*
X117024819Y-87452380D02*
X117024819Y-87357142D01*
X117024819Y-87357142D02*
X117072438Y-87214285D01*
X117072438Y-87214285D02*
X117120057Y-87166666D01*
X117120057Y-86785713D02*
X117072438Y-86738094D01*
X117072438Y-86738094D02*
X117024819Y-86642856D01*
X117024819Y-86642856D02*
X117024819Y-86404761D01*
X117024819Y-86404761D02*
X117072438Y-86309523D01*
X117072438Y-86309523D02*
X117120057Y-86261904D01*
X117120057Y-86261904D02*
X117215295Y-86214285D01*
X117215295Y-86214285D02*
X117310533Y-86214285D01*
X117310533Y-86214285D02*
X117453390Y-86261904D01*
X117453390Y-86261904D02*
X118024819Y-86833332D01*
X118024819Y-86833332D02*
X118024819Y-86214285D01*
X112549819Y-66841666D02*
X112073628Y-67174999D01*
X112549819Y-67413094D02*
X111549819Y-67413094D01*
X111549819Y-67413094D02*
X111549819Y-67032142D01*
X111549819Y-67032142D02*
X111597438Y-66936904D01*
X111597438Y-66936904D02*
X111645057Y-66889285D01*
X111645057Y-66889285D02*
X111740295Y-66841666D01*
X111740295Y-66841666D02*
X111883152Y-66841666D01*
X111883152Y-66841666D02*
X111978390Y-66889285D01*
X111978390Y-66889285D02*
X112026009Y-66936904D01*
X112026009Y-66936904D02*
X112073628Y-67032142D01*
X112073628Y-67032142D02*
X112073628Y-67413094D01*
X111549819Y-66508332D02*
X111549819Y-65841666D01*
X111549819Y-65841666D02*
X112549819Y-66270237D01*
X114504580Y-88591666D02*
X114552200Y-88639285D01*
X114552200Y-88639285D02*
X114599819Y-88782142D01*
X114599819Y-88782142D02*
X114599819Y-88877380D01*
X114599819Y-88877380D02*
X114552200Y-89020237D01*
X114552200Y-89020237D02*
X114456961Y-89115475D01*
X114456961Y-89115475D02*
X114361723Y-89163094D01*
X114361723Y-89163094D02*
X114171247Y-89210713D01*
X114171247Y-89210713D02*
X114028390Y-89210713D01*
X114028390Y-89210713D02*
X113837914Y-89163094D01*
X113837914Y-89163094D02*
X113742676Y-89115475D01*
X113742676Y-89115475D02*
X113647438Y-89020237D01*
X113647438Y-89020237D02*
X113599819Y-88877380D01*
X113599819Y-88877380D02*
X113599819Y-88782142D01*
X113599819Y-88782142D02*
X113647438Y-88639285D01*
X113647438Y-88639285D02*
X113695057Y-88591666D01*
X113933152Y-87734523D02*
X114599819Y-87734523D01*
X113552200Y-87972618D02*
X114266485Y-88210713D01*
X114266485Y-88210713D02*
X114266485Y-87591666D01*
X101816666Y-72542319D02*
X101816666Y-73256604D01*
X101816666Y-73256604D02*
X101769047Y-73399461D01*
X101769047Y-73399461D02*
X101673809Y-73494700D01*
X101673809Y-73494700D02*
X101530952Y-73542319D01*
X101530952Y-73542319D02*
X101435714Y-73542319D01*
X102816666Y-73542319D02*
X102245238Y-73542319D01*
X102530952Y-73542319D02*
X102530952Y-72542319D01*
X102530952Y-72542319D02*
X102435714Y-72685176D01*
X102435714Y-72685176D02*
X102340476Y-72780414D01*
X102340476Y-72780414D02*
X102245238Y-72828033D01*
X92602319Y-108907083D02*
X93316604Y-108907083D01*
X93316604Y-108907083D02*
X93459461Y-108954702D01*
X93459461Y-108954702D02*
X93554700Y-109049940D01*
X93554700Y-109049940D02*
X93602319Y-109192797D01*
X93602319Y-109192797D02*
X93602319Y-109288035D01*
X92935652Y-108002321D02*
X93602319Y-108002321D01*
X92554700Y-108240416D02*
X93268985Y-108478511D01*
X93268985Y-108478511D02*
X93268985Y-107859464D01*
X93481069Y-110867916D02*
X93004878Y-111201249D01*
X93481069Y-111439344D02*
X92481069Y-111439344D01*
X92481069Y-111439344D02*
X92481069Y-111058392D01*
X92481069Y-111058392D02*
X92528688Y-110963154D01*
X92528688Y-110963154D02*
X92576307Y-110915535D01*
X92576307Y-110915535D02*
X92671545Y-110867916D01*
X92671545Y-110867916D02*
X92814402Y-110867916D01*
X92814402Y-110867916D02*
X92909640Y-110915535D01*
X92909640Y-110915535D02*
X92957259Y-110963154D01*
X92957259Y-110963154D02*
X93004878Y-111058392D01*
X93004878Y-111058392D02*
X93004878Y-111439344D01*
X92814402Y-110010773D02*
X93481069Y-110010773D01*
X92433450Y-110248868D02*
X93147735Y-110486963D01*
X93147735Y-110486963D02*
X93147735Y-109867916D01*
X114152083Y-61731069D02*
X113818750Y-61254878D01*
X113580655Y-61731069D02*
X113580655Y-60731069D01*
X113580655Y-60731069D02*
X113961607Y-60731069D01*
X113961607Y-60731069D02*
X114056845Y-60778688D01*
X114056845Y-60778688D02*
X114104464Y-60826307D01*
X114104464Y-60826307D02*
X114152083Y-60921545D01*
X114152083Y-60921545D02*
X114152083Y-61064402D01*
X114152083Y-61064402D02*
X114104464Y-61159640D01*
X114104464Y-61159640D02*
X114056845Y-61207259D01*
X114056845Y-61207259D02*
X113961607Y-61254878D01*
X113961607Y-61254878D02*
X113580655Y-61254878D01*
X114723512Y-61159640D02*
X114628274Y-61112021D01*
X114628274Y-61112021D02*
X114580655Y-61064402D01*
X114580655Y-61064402D02*
X114533036Y-60969164D01*
X114533036Y-60969164D02*
X114533036Y-60921545D01*
X114533036Y-60921545D02*
X114580655Y-60826307D01*
X114580655Y-60826307D02*
X114628274Y-60778688D01*
X114628274Y-60778688D02*
X114723512Y-60731069D01*
X114723512Y-60731069D02*
X114913988Y-60731069D01*
X114913988Y-60731069D02*
X115009226Y-60778688D01*
X115009226Y-60778688D02*
X115056845Y-60826307D01*
X115056845Y-60826307D02*
X115104464Y-60921545D01*
X115104464Y-60921545D02*
X115104464Y-60969164D01*
X115104464Y-60969164D02*
X115056845Y-61064402D01*
X115056845Y-61064402D02*
X115009226Y-61112021D01*
X115009226Y-61112021D02*
X114913988Y-61159640D01*
X114913988Y-61159640D02*
X114723512Y-61159640D01*
X114723512Y-61159640D02*
X114628274Y-61207259D01*
X114628274Y-61207259D02*
X114580655Y-61254878D01*
X114580655Y-61254878D02*
X114533036Y-61350116D01*
X114533036Y-61350116D02*
X114533036Y-61540592D01*
X114533036Y-61540592D02*
X114580655Y-61635830D01*
X114580655Y-61635830D02*
X114628274Y-61683450D01*
X114628274Y-61683450D02*
X114723512Y-61731069D01*
X114723512Y-61731069D02*
X114913988Y-61731069D01*
X114913988Y-61731069D02*
X115009226Y-61683450D01*
X115009226Y-61683450D02*
X115056845Y-61635830D01*
X115056845Y-61635830D02*
X115104464Y-61540592D01*
X115104464Y-61540592D02*
X115104464Y-61350116D01*
X115104464Y-61350116D02*
X115056845Y-61254878D01*
X115056845Y-61254878D02*
X115009226Y-61207259D01*
X115009226Y-61207259D02*
X114913988Y-61159640D01*
X114604819Y-64627083D02*
X115319104Y-64627083D01*
X115319104Y-64627083D02*
X115461961Y-64674702D01*
X115461961Y-64674702D02*
X115557200Y-64769940D01*
X115557200Y-64769940D02*
X115604819Y-64912797D01*
X115604819Y-64912797D02*
X115604819Y-65008035D01*
X114604819Y-63674702D02*
X114604819Y-64150892D01*
X114604819Y-64150892D02*
X115081009Y-64198511D01*
X115081009Y-64198511D02*
X115033390Y-64150892D01*
X115033390Y-64150892D02*
X114985771Y-64055654D01*
X114985771Y-64055654D02*
X114985771Y-63817559D01*
X114985771Y-63817559D02*
X115033390Y-63722321D01*
X115033390Y-63722321D02*
X115081009Y-63674702D01*
X115081009Y-63674702D02*
X115176247Y-63627083D01*
X115176247Y-63627083D02*
X115414342Y-63627083D01*
X115414342Y-63627083D02*
X115509580Y-63674702D01*
X115509580Y-63674702D02*
X115557200Y-63722321D01*
X115557200Y-63722321D02*
X115604819Y-63817559D01*
X115604819Y-63817559D02*
X115604819Y-64055654D01*
X115604819Y-64055654D02*
X115557200Y-64150892D01*
X115557200Y-64150892D02*
X115509580Y-64198511D01*
X101816666Y-88417319D02*
X101816666Y-89131604D01*
X101816666Y-89131604D02*
X101769047Y-89274461D01*
X101769047Y-89274461D02*
X101673809Y-89369700D01*
X101673809Y-89369700D02*
X101530952Y-89417319D01*
X101530952Y-89417319D02*
X101435714Y-89417319D01*
X102245238Y-88512557D02*
X102292857Y-88464938D01*
X102292857Y-88464938D02*
X102388095Y-88417319D01*
X102388095Y-88417319D02*
X102626190Y-88417319D01*
X102626190Y-88417319D02*
X102721428Y-88464938D01*
X102721428Y-88464938D02*
X102769047Y-88512557D01*
X102769047Y-88512557D02*
X102816666Y-88607795D01*
X102816666Y-88607795D02*
X102816666Y-88703033D01*
X102816666Y-88703033D02*
X102769047Y-88845890D01*
X102769047Y-88845890D02*
X102197619Y-89417319D01*
X102197619Y-89417319D02*
X102816666Y-89417319D01*
X119674819Y-81129166D02*
X119198628Y-81462499D01*
X119674819Y-81700594D02*
X118674819Y-81700594D01*
X118674819Y-81700594D02*
X118674819Y-81319642D01*
X118674819Y-81319642D02*
X118722438Y-81224404D01*
X118722438Y-81224404D02*
X118770057Y-81176785D01*
X118770057Y-81176785D02*
X118865295Y-81129166D01*
X118865295Y-81129166D02*
X119008152Y-81129166D01*
X119008152Y-81129166D02*
X119103390Y-81176785D01*
X119103390Y-81176785D02*
X119151009Y-81224404D01*
X119151009Y-81224404D02*
X119198628Y-81319642D01*
X119198628Y-81319642D02*
X119198628Y-81700594D01*
X118674819Y-80224404D02*
X118674819Y-80700594D01*
X118674819Y-80700594D02*
X119151009Y-80748213D01*
X119151009Y-80748213D02*
X119103390Y-80700594D01*
X119103390Y-80700594D02*
X119055771Y-80605356D01*
X119055771Y-80605356D02*
X119055771Y-80367261D01*
X119055771Y-80367261D02*
X119103390Y-80272023D01*
X119103390Y-80272023D02*
X119151009Y-80224404D01*
X119151009Y-80224404D02*
X119246247Y-80176785D01*
X119246247Y-80176785D02*
X119484342Y-80176785D01*
X119484342Y-80176785D02*
X119579580Y-80224404D01*
X119579580Y-80224404D02*
X119627200Y-80272023D01*
X119627200Y-80272023D02*
X119674819Y-80367261D01*
X119674819Y-80367261D02*
X119674819Y-80605356D01*
X119674819Y-80605356D02*
X119627200Y-80700594D01*
X119627200Y-80700594D02*
X119579580Y-80748213D01*
X95547319Y-103705416D02*
X95071128Y-104038749D01*
X95547319Y-104276844D02*
X94547319Y-104276844D01*
X94547319Y-104276844D02*
X94547319Y-103895892D01*
X94547319Y-103895892D02*
X94594938Y-103800654D01*
X94594938Y-103800654D02*
X94642557Y-103753035D01*
X94642557Y-103753035D02*
X94737795Y-103705416D01*
X94737795Y-103705416D02*
X94880652Y-103705416D01*
X94880652Y-103705416D02*
X94975890Y-103753035D01*
X94975890Y-103753035D02*
X95023509Y-103800654D01*
X95023509Y-103800654D02*
X95071128Y-103895892D01*
X95071128Y-103895892D02*
X95071128Y-104276844D01*
X94642557Y-103324463D02*
X94594938Y-103276844D01*
X94594938Y-103276844D02*
X94547319Y-103181606D01*
X94547319Y-103181606D02*
X94547319Y-102943511D01*
X94547319Y-102943511D02*
X94594938Y-102848273D01*
X94594938Y-102848273D02*
X94642557Y-102800654D01*
X94642557Y-102800654D02*
X94737795Y-102753035D01*
X94737795Y-102753035D02*
X94833033Y-102753035D01*
X94833033Y-102753035D02*
X94975890Y-102800654D01*
X94975890Y-102800654D02*
X95547319Y-103372082D01*
X95547319Y-103372082D02*
X95547319Y-102753035D01*
D11*
%TO.C,G\u002A\u002A\u002A*%
G36*
X118133234Y-96352931D02*
G01*
X118743036Y-96377694D01*
X119009860Y-96396924D01*
X119315001Y-96418915D01*
X119846523Y-96476334D01*
X120334998Y-96549692D01*
X120777820Y-96638728D01*
X121002506Y-96694701D01*
X121457065Y-96838422D01*
X121871585Y-97015053D01*
X122246977Y-97225461D01*
X122584150Y-97470515D01*
X122884017Y-97751081D01*
X123147486Y-98068027D01*
X123375469Y-98422221D01*
X123568876Y-98814530D01*
X123728617Y-99245821D01*
X123749013Y-99311561D01*
X123835445Y-99620596D01*
X123909885Y-99940070D01*
X123973006Y-100275538D01*
X124025481Y-100632556D01*
X124067983Y-101016681D01*
X124101184Y-101433468D01*
X124125757Y-101888474D01*
X124142375Y-102387255D01*
X124146886Y-102597031D01*
X124151642Y-103283741D01*
X124139350Y-103923065D01*
X124109682Y-104516852D01*
X124062315Y-105066948D01*
X123996923Y-105575201D01*
X123913180Y-106043458D01*
X123810762Y-106473568D01*
X123689341Y-106867377D01*
X123548595Y-107226734D01*
X123388195Y-107553485D01*
X123226794Y-107821167D01*
X123011771Y-108109887D01*
X122767043Y-108371045D01*
X122490705Y-108605465D01*
X122180855Y-108813966D01*
X121835590Y-108997373D01*
X121453005Y-109156505D01*
X121031199Y-109292186D01*
X120568268Y-109405237D01*
X120062308Y-109496480D01*
X119511417Y-109566737D01*
X119098875Y-109603807D01*
X118877236Y-109617690D01*
X118614344Y-109629245D01*
X118320892Y-109638358D01*
X118007576Y-109644915D01*
X117685091Y-109648802D01*
X117364132Y-109649902D01*
X117055393Y-109648103D01*
X116769570Y-109643290D01*
X116517357Y-109635347D01*
X116447083Y-109632203D01*
X115862188Y-109595657D01*
X115324683Y-109544664D01*
X114831768Y-109478363D01*
X114380644Y-109395891D01*
X113968509Y-109296385D01*
X113592564Y-109178981D01*
X113250009Y-109042817D01*
X112938043Y-108887031D01*
X112653866Y-108710758D01*
X112394679Y-108513137D01*
X112181997Y-108317846D01*
X111951073Y-108060929D01*
X111744454Y-107774954D01*
X111561301Y-107457502D01*
X111400774Y-107106153D01*
X111262035Y-106718491D01*
X111144245Y-106292095D01*
X111046563Y-105824547D01*
X110968151Y-105313429D01*
X110908170Y-104756321D01*
X110897312Y-104625981D01*
X113495265Y-104625981D01*
X113496216Y-104799343D01*
X113499280Y-104961095D01*
X113504505Y-105102154D01*
X113511938Y-105213438D01*
X113521627Y-105285865D01*
X113523749Y-105294565D01*
X113533308Y-105331091D01*
X113542689Y-105362558D01*
X113555595Y-105389360D01*
X113575727Y-105411893D01*
X113606789Y-105430548D01*
X113652482Y-105445722D01*
X113716508Y-105457807D01*
X113802571Y-105467198D01*
X113914372Y-105474289D01*
X114055614Y-105479474D01*
X114230000Y-105483147D01*
X114441231Y-105485702D01*
X114693009Y-105487533D01*
X114989038Y-105489035D01*
X115333020Y-105490601D01*
X115366999Y-105490761D01*
X115795791Y-105492276D01*
X116176124Y-105492426D01*
X116511523Y-105491083D01*
X116805510Y-105488119D01*
X117061609Y-105483406D01*
X117283342Y-105476815D01*
X117474234Y-105468218D01*
X117637807Y-105457488D01*
X117777585Y-105444494D01*
X117897090Y-105429111D01*
X117999846Y-105411208D01*
X118084954Y-105391803D01*
X118371097Y-105297124D01*
X118616742Y-105170929D01*
X118821394Y-105013585D01*
X118984558Y-104825457D01*
X119084643Y-104653541D01*
X119134765Y-104539870D01*
X119178288Y-104425702D01*
X119207517Y-104331646D01*
X119211853Y-104312896D01*
X119254344Y-103989125D01*
X119253236Y-103656689D01*
X119210053Y-103326379D01*
X119126320Y-103008985D01*
X119003562Y-102715296D01*
X118979601Y-102669750D01*
X118919546Y-102552006D01*
X118887474Y-102468000D01*
X118881418Y-102408965D01*
X118899412Y-102366134D01*
X118909090Y-102355250D01*
X118930081Y-102347769D01*
X118978961Y-102341461D01*
X119058863Y-102336255D01*
X119172921Y-102332077D01*
X119324269Y-102328856D01*
X119516042Y-102326518D01*
X119751374Y-102324991D01*
X120033400Y-102324204D01*
X120257104Y-102324053D01*
X120574609Y-102323778D01*
X120843970Y-102322801D01*
X121069036Y-102320894D01*
X121253656Y-102317829D01*
X121401680Y-102313377D01*
X121516957Y-102307309D01*
X121603337Y-102299399D01*
X121664668Y-102289416D01*
X121704801Y-102277134D01*
X121727584Y-102262323D01*
X121736867Y-102244755D01*
X121737667Y-102236241D01*
X121733390Y-102203923D01*
X121721268Y-102126767D01*
X121702362Y-102011159D01*
X121677733Y-101863488D01*
X121648442Y-101690142D01*
X121615551Y-101497509D01*
X121597130Y-101390400D01*
X121553003Y-101140194D01*
X121514111Y-100931501D01*
X121480889Y-100766402D01*
X121453774Y-100646978D01*
X121433200Y-100575309D01*
X121421867Y-100553828D01*
X121376869Y-100538368D01*
X121301539Y-100523214D01*
X121256929Y-100516979D01*
X121215917Y-100515225D01*
X121125958Y-100513635D01*
X120990098Y-100512215D01*
X120811385Y-100510971D01*
X120592867Y-100509909D01*
X120337590Y-100509036D01*
X120048604Y-100508356D01*
X119728955Y-100507877D01*
X119381691Y-100507604D01*
X119009860Y-100507544D01*
X118616509Y-100507701D01*
X118204685Y-100508083D01*
X117777437Y-100508694D01*
X117407858Y-100509393D01*
X116893411Y-100510499D01*
X116428415Y-100511576D01*
X116010326Y-100512659D01*
X115636599Y-100513784D01*
X115304689Y-100514988D01*
X115012052Y-100516305D01*
X114756143Y-100517773D01*
X114534418Y-100519426D01*
X114344332Y-100521301D01*
X114183340Y-100523434D01*
X114048898Y-100525860D01*
X113938461Y-100528615D01*
X113849484Y-100531736D01*
X113779423Y-100535258D01*
X113725734Y-100539217D01*
X113685871Y-100543649D01*
X113657290Y-100548590D01*
X113637447Y-100554075D01*
X113623796Y-100560141D01*
X113619364Y-100562827D01*
X113562255Y-100620907D01*
X113525367Y-100692816D01*
X113517015Y-100748904D01*
X113510251Y-100847645D01*
X113505085Y-100979718D01*
X113501528Y-101135805D01*
X113499589Y-101306587D01*
X113499280Y-101482743D01*
X113500611Y-101654955D01*
X113503593Y-101813903D01*
X113508235Y-101950268D01*
X113514550Y-102054730D01*
X113522547Y-102117969D01*
X113523749Y-102122814D01*
X113533492Y-102159748D01*
X113543197Y-102191496D01*
X113556626Y-102218484D01*
X113577538Y-102241137D01*
X113609697Y-102259879D01*
X113656863Y-102275136D01*
X113722797Y-102287332D01*
X113811261Y-102296892D01*
X113926015Y-102304242D01*
X114070822Y-102309805D01*
X114249442Y-102314008D01*
X114465637Y-102317274D01*
X114723168Y-102320029D01*
X115025796Y-102322698D01*
X115314985Y-102325161D01*
X115657623Y-102328151D01*
X115952630Y-102330976D01*
X116204370Y-102333991D01*
X116417205Y-102337555D01*
X116595499Y-102342025D01*
X116743614Y-102347757D01*
X116865913Y-102355109D01*
X116966759Y-102364438D01*
X117050515Y-102376101D01*
X117121544Y-102390454D01*
X117184209Y-102407856D01*
X117242872Y-102428663D01*
X117301897Y-102453233D01*
X117365647Y-102481922D01*
X117395180Y-102495422D01*
X117580373Y-102596822D01*
X117733883Y-102714699D01*
X117853385Y-102843961D01*
X117936555Y-102979516D01*
X117981070Y-103116270D01*
X117984605Y-103249131D01*
X117944836Y-103373007D01*
X117859440Y-103482804D01*
X117849752Y-103491545D01*
X117814831Y-103522043D01*
X117781775Y-103548635D01*
X117746931Y-103571617D01*
X117706646Y-103591283D01*
X117657267Y-103607927D01*
X117595143Y-103621844D01*
X117516620Y-103633329D01*
X117418046Y-103642675D01*
X117295769Y-103650178D01*
X117146136Y-103656131D01*
X116965493Y-103660829D01*
X116750190Y-103664567D01*
X116496572Y-103667639D01*
X116200988Y-103670340D01*
X115859785Y-103672964D01*
X115573621Y-103675045D01*
X115206229Y-103677640D01*
X114887296Y-103679918D01*
X114613290Y-103682185D01*
X114380677Y-103684744D01*
X114185925Y-103687897D01*
X114025501Y-103691950D01*
X113895872Y-103697206D01*
X113793505Y-103703968D01*
X113714867Y-103712540D01*
X113656425Y-103723225D01*
X113614647Y-103736328D01*
X113586000Y-103752152D01*
X113566951Y-103771001D01*
X113553966Y-103793178D01*
X113543514Y-103818988D01*
X113532060Y-103848733D01*
X113531286Y-103850597D01*
X113520552Y-103902894D01*
X113511647Y-103998074D01*
X113504619Y-104127055D01*
X113499514Y-104280755D01*
X113496380Y-104450091D01*
X113495265Y-104625981D01*
X110897312Y-104625981D01*
X110896137Y-104611873D01*
X110887561Y-104472968D01*
X110879897Y-104290232D01*
X110873213Y-104071821D01*
X110867581Y-103825894D01*
X110863069Y-103560606D01*
X110859747Y-103284117D01*
X110857685Y-103004582D01*
X110856953Y-102730160D01*
X110857620Y-102469007D01*
X110859756Y-102229282D01*
X110863430Y-102019141D01*
X110868713Y-101846742D01*
X110871933Y-101778096D01*
X110915162Y-101184652D01*
X110977692Y-100630887D01*
X111059188Y-100118413D01*
X111159318Y-99648840D01*
X111277746Y-99223779D01*
X111414139Y-98844842D01*
X111534568Y-98578765D01*
X111689707Y-98306594D01*
X111877701Y-98037755D01*
X112089271Y-97782999D01*
X112315140Y-97553082D01*
X112546030Y-97358756D01*
X112651382Y-97284272D01*
X112944917Y-97108505D01*
X113266108Y-96952178D01*
X113617263Y-96814843D01*
X114000687Y-96696051D01*
X114418689Y-96595354D01*
X114873574Y-96512304D01*
X115367650Y-96446454D01*
X115903223Y-96397355D01*
X116482601Y-96364559D01*
X117108089Y-96347618D01*
X117488200Y-96344883D01*
X118133234Y-96352931D01*
G37*
G36*
X128545520Y-89477777D02*
G01*
X129319356Y-89477777D01*
X129319356Y-90278924D01*
X129306241Y-90722663D01*
X129268859Y-91034283D01*
X129210149Y-91189277D01*
X129210108Y-91189318D01*
X129057132Y-91250750D01*
X128789791Y-91286499D01*
X128473182Y-91296028D01*
X128172398Y-91278804D01*
X127952537Y-91234292D01*
X127891764Y-91200150D01*
X127764832Y-91163246D01*
X127540713Y-91234002D01*
X127421986Y-91291189D01*
X127159075Y-91420880D01*
X127018739Y-91467505D01*
X126962613Y-91433148D01*
X126952332Y-91319895D01*
X126952330Y-91316707D01*
X127038322Y-91163321D01*
X127282473Y-90994402D01*
X127362008Y-90953732D01*
X127604736Y-90826752D01*
X127725602Y-90709318D01*
X127767093Y-90533458D01*
X127771685Y-90298315D01*
X127771685Y-89841935D01*
X128044804Y-89841935D01*
X128044804Y-90388171D01*
X128044804Y-90934408D01*
X128545520Y-90934408D01*
X129046237Y-90934408D01*
X129046237Y-90388171D01*
X129046237Y-89841935D01*
X128545520Y-89841935D01*
X128044804Y-89841935D01*
X127771685Y-89841935D01*
X127362008Y-89841935D01*
X127105992Y-89830021D01*
X126984929Y-89780553D01*
X126952487Y-89672936D01*
X126952330Y-89659856D01*
X126962369Y-89585523D01*
X127011827Y-89534737D01*
X127129724Y-89503035D01*
X127345073Y-89485950D01*
X127686894Y-89479021D01*
X128135843Y-89477777D01*
X128545520Y-89477777D01*
G37*
G36*
X128619006Y-91664268D02*
G01*
X128949113Y-91671877D01*
X129155182Y-91690015D01*
X129266228Y-91723145D01*
X129311270Y-91775733D01*
X129319356Y-91844802D01*
X129266013Y-91987582D01*
X129091757Y-92026881D01*
X128968275Y-92037604D01*
X128900126Y-92097520D01*
X128870912Y-92248247D01*
X128864233Y-92531406D01*
X128864158Y-92604527D01*
X128849155Y-92972289D01*
X128784645Y-93220907D01*
X128641382Y-93373287D01*
X128390115Y-93452334D01*
X128001596Y-93480954D01*
X127741757Y-93483512D01*
X127360996Y-93480249D01*
X127127003Y-93465036D01*
X127004510Y-93429739D01*
X126958246Y-93366223D01*
X126952330Y-93301433D01*
X126966021Y-93214925D01*
X127030197Y-93161171D01*
X127179513Y-93132469D01*
X127448623Y-93121117D01*
X127771685Y-93119354D01*
X128591040Y-93119354D01*
X128591040Y-92573118D01*
X128591040Y-92026881D01*
X127771685Y-92026881D01*
X127382400Y-92023839D01*
X127140505Y-92009577D01*
X127011345Y-91976396D01*
X126960265Y-91916594D01*
X126952330Y-91844802D01*
X126962369Y-91770469D01*
X127011827Y-91719684D01*
X127129724Y-91687981D01*
X127345073Y-91670897D01*
X127686894Y-91663967D01*
X128135843Y-91662723D01*
X128619006Y-91664268D01*
G37*
G36*
X128183173Y-93853199D02*
G01*
X128317922Y-93864887D01*
X128494948Y-93880242D01*
X128707080Y-93928473D01*
X128754911Y-93956917D01*
X128814198Y-94109964D01*
X128852164Y-94408515D01*
X128864158Y-94776272D01*
X128864158Y-95486379D01*
X128317922Y-95486379D01*
X127771685Y-95486379D01*
X127771685Y-94849103D01*
X127771685Y-94523019D01*
X128044804Y-94523019D01*
X128060513Y-94780750D01*
X128098470Y-94973935D01*
X128100063Y-94978216D01*
X128224290Y-95090189D01*
X128373182Y-95122221D01*
X128502637Y-95106013D01*
X128567226Y-95026480D01*
X128589139Y-94837255D01*
X128591040Y-94667024D01*
X128585073Y-94397559D01*
X128548385Y-94263186D01*
X128452794Y-94216938D01*
X128317922Y-94211827D01*
X128132916Y-94230259D01*
X128058190Y-94322699D01*
X128044804Y-94523019D01*
X127771685Y-94523019D01*
X127771685Y-94211827D01*
X127498567Y-94211827D01*
X127225449Y-94211827D01*
X127225449Y-94803583D01*
X127216332Y-95135509D01*
X127183756Y-95319994D01*
X127119882Y-95391007D01*
X127088890Y-95395340D01*
X127016019Y-95358921D01*
X126973657Y-95227561D01*
X126954992Y-94968101D01*
X126952330Y-94730752D01*
X126967496Y-94353752D01*
X127009004Y-94079188D01*
X127061578Y-93956917D01*
X127210956Y-93899204D01*
X127485080Y-93862680D01*
X127827851Y-93847345D01*
X128183173Y-93853199D01*
G37*
G36*
X128864158Y-96564742D02*
G01*
X128852798Y-96988546D01*
X128798961Y-97274755D01*
X128673013Y-97450180D01*
X128445321Y-97541634D01*
X128086250Y-97575930D01*
X127741757Y-97580286D01*
X127360996Y-97577023D01*
X127127003Y-97561810D01*
X127004510Y-97526513D01*
X126958246Y-97462997D01*
X126952330Y-97398207D01*
X126966021Y-97311699D01*
X127030197Y-97257945D01*
X127179513Y-97229243D01*
X127448623Y-97217892D01*
X127771685Y-97216128D01*
X128591040Y-97216128D01*
X128591040Y-96715411D01*
X128591040Y-96214695D01*
X127771685Y-96214695D01*
X127382400Y-96211652D01*
X127140505Y-96197391D01*
X127011345Y-96164210D01*
X126960265Y-96104407D01*
X126952330Y-96032616D01*
X126964316Y-95951388D01*
X127021734Y-95898707D01*
X127156775Y-95868441D01*
X127401631Y-95854458D01*
X127788492Y-95850627D01*
X127908244Y-95850537D01*
X128864158Y-95850537D01*
X128864158Y-96564742D01*
G37*
G36*
X128334690Y-97946727D02*
G01*
X128611266Y-97957663D01*
X128770163Y-97983386D01*
X128843572Y-98030025D01*
X128863685Y-98103713D01*
X128864158Y-98126523D01*
X128852173Y-98207750D01*
X128794755Y-98260431D01*
X128659714Y-98290697D01*
X128414858Y-98304680D01*
X128027997Y-98308511D01*
X127908244Y-98308601D01*
X127481799Y-98306318D01*
X127205223Y-98295382D01*
X127046326Y-98269660D01*
X126972917Y-98223020D01*
X126952804Y-98149332D01*
X126952330Y-98126523D01*
X126964316Y-98045295D01*
X127021734Y-97992614D01*
X127156775Y-97962348D01*
X127401631Y-97948365D01*
X127788492Y-97944534D01*
X127908244Y-97944444D01*
X128334690Y-97946727D01*
G37*
G36*
X128455493Y-98676022D02*
G01*
X128689486Y-98691235D01*
X128811979Y-98726532D01*
X128858243Y-98790048D01*
X128864158Y-98854838D01*
X128850468Y-98941346D01*
X128786292Y-98995100D01*
X128636976Y-99023802D01*
X128367866Y-99035154D01*
X128044804Y-99036917D01*
X127225449Y-99036917D01*
X127225449Y-99537634D01*
X127225449Y-100038351D01*
X128044804Y-100038351D01*
X128434088Y-100041393D01*
X128675984Y-100055654D01*
X128805144Y-100088835D01*
X128856224Y-100148638D01*
X128864158Y-100220429D01*
X128852173Y-100301657D01*
X128794755Y-100354338D01*
X128659714Y-100384604D01*
X128414858Y-100398587D01*
X128027997Y-100402418D01*
X127908244Y-100402508D01*
X126952330Y-100402508D01*
X126952330Y-99688303D01*
X126960867Y-99301707D01*
X126992108Y-99052758D01*
X127054497Y-98897584D01*
X127118818Y-98823428D01*
X127254607Y-98744188D01*
X127472698Y-98696946D01*
X127811592Y-98675632D01*
X128074732Y-98672759D01*
X128455493Y-98676022D01*
G37*
G36*
X128864158Y-102027108D02*
G01*
X128861564Y-102593419D01*
X128841620Y-103003032D01*
X128786090Y-103281326D01*
X128676733Y-103453678D01*
X128495311Y-103545467D01*
X128223586Y-103582073D01*
X127843319Y-103588872D01*
X127741757Y-103588888D01*
X127360996Y-103585625D01*
X127127003Y-103570412D01*
X127004510Y-103535116D01*
X126958246Y-103471599D01*
X126952330Y-103406809D01*
X126966021Y-103320302D01*
X127030197Y-103266547D01*
X127179513Y-103237845D01*
X127448623Y-103226494D01*
X127771685Y-103224730D01*
X128591040Y-103224730D01*
X128591040Y-102815053D01*
X128591040Y-102405376D01*
X127771685Y-102405376D01*
X127382400Y-102402333D01*
X127140505Y-102388072D01*
X127011345Y-102354891D01*
X126960265Y-102295088D01*
X126952330Y-102223297D01*
X126966021Y-102136789D01*
X127030197Y-102083035D01*
X127179513Y-102054332D01*
X127448623Y-102042981D01*
X127771685Y-102041218D01*
X128591040Y-102041218D01*
X128591040Y-101586021D01*
X128591040Y-101130824D01*
X127771685Y-101130824D01*
X127382400Y-101127781D01*
X127140505Y-101113520D01*
X127011345Y-101080339D01*
X126960265Y-101020536D01*
X126952330Y-100948745D01*
X126964316Y-100867517D01*
X127021734Y-100814836D01*
X127156775Y-100784570D01*
X127401631Y-100770587D01*
X127788492Y-100766756D01*
X127908244Y-100766666D01*
X128864158Y-100766666D01*
X128864158Y-102027108D01*
G37*
G36*
X128619006Y-104773945D02*
G01*
X128949113Y-104781554D01*
X129155182Y-104799692D01*
X129266228Y-104832823D01*
X129311270Y-104885410D01*
X129319356Y-104954480D01*
X129297622Y-105059703D01*
X129203655Y-105114518D01*
X128994304Y-105134616D01*
X128818639Y-105136558D01*
X128317922Y-105136558D01*
X128317922Y-105773834D01*
X128317922Y-106411110D01*
X128818639Y-106411110D01*
X129108002Y-106419013D01*
X129258744Y-106453183D01*
X129314015Y-106529311D01*
X129319356Y-106593189D01*
X129309317Y-106667522D01*
X129259859Y-106718308D01*
X129141962Y-106750011D01*
X128926613Y-106767095D01*
X128584792Y-106774024D01*
X128135843Y-106775268D01*
X127652680Y-106773724D01*
X127322573Y-106766115D01*
X127116504Y-106747977D01*
X127005458Y-106714846D01*
X126960416Y-106662258D01*
X126952330Y-106593189D01*
X126972261Y-106491494D01*
X127059814Y-106436544D01*
X127256629Y-106414458D01*
X127498567Y-106411110D01*
X128044804Y-106411110D01*
X128044804Y-105773834D01*
X128044804Y-105136558D01*
X127498567Y-105136558D01*
X127193483Y-105129915D01*
X127028631Y-105100731D01*
X126962373Y-105035126D01*
X126952330Y-104954480D01*
X126962369Y-104880147D01*
X127011827Y-104829361D01*
X127129724Y-104797658D01*
X127345073Y-104780574D01*
X127686894Y-104773645D01*
X128135843Y-104772401D01*
X128619006Y-104773945D01*
G37*
G36*
X128744587Y-107050423D02*
G01*
X129036019Y-107060261D01*
X129207867Y-107083495D01*
X129291373Y-107125717D01*
X129317777Y-107192520D01*
X129319356Y-107230465D01*
X129308252Y-107308697D01*
X129254405Y-107360623D01*
X129127011Y-107391599D01*
X128895265Y-107406983D01*
X128528363Y-107412133D01*
X128272402Y-107412544D01*
X127225449Y-107412544D01*
X127225449Y-108004300D01*
X127225449Y-108596057D01*
X128272402Y-108596057D01*
X128722236Y-108597988D01*
X129020808Y-108607352D01*
X129198921Y-108629508D01*
X129287380Y-108669811D01*
X129316990Y-108733621D01*
X129319356Y-108778135D01*
X129308126Y-108856809D01*
X129253764Y-108908852D01*
X129125263Y-108939732D01*
X128891615Y-108954915D01*
X128521811Y-108959866D01*
X128286512Y-108960214D01*
X127768944Y-108954082D01*
X127405999Y-108922396D01*
X127170309Y-108845223D01*
X127034505Y-108702628D01*
X126971218Y-108474679D01*
X126953079Y-108141442D01*
X126952330Y-107988482D01*
X126963492Y-107618635D01*
X127003498Y-107383470D01*
X127082135Y-107236592D01*
X127118818Y-107199055D01*
X127230856Y-107129917D01*
X127407369Y-107084817D01*
X127682845Y-107059367D01*
X128091773Y-107049175D01*
X128302331Y-107048386D01*
X128744587Y-107050423D01*
G37*
G36*
X127635126Y-109324372D02*
G01*
X128135843Y-109324372D01*
X128682080Y-109324372D01*
X129319356Y-109324372D01*
X129319356Y-110132580D01*
X129309432Y-110584863D01*
X129265942Y-110883434D01*
X129168303Y-111056194D01*
X128995934Y-111131045D01*
X128728253Y-111135890D01*
X128587845Y-111124281D01*
X128316986Y-111113253D01*
X128129133Y-111133512D01*
X128082226Y-111158263D01*
X127969270Y-111206253D01*
X127743277Y-111233701D01*
X127643863Y-111236200D01*
X127351636Y-111212464D01*
X127153517Y-111122720D01*
X127032377Y-110939161D01*
X126971083Y-110633983D01*
X126952503Y-110179379D01*
X126952330Y-110113799D01*
X126952330Y-109688530D01*
X127225449Y-109688530D01*
X127225449Y-110280286D01*
X127225449Y-110872042D01*
X127635126Y-110872042D01*
X128044804Y-110872042D01*
X128044804Y-110280286D01*
X128044804Y-109688530D01*
X128317922Y-109688530D01*
X128317922Y-110234766D01*
X128317922Y-110781003D01*
X128682080Y-110781003D01*
X129046237Y-110781003D01*
X129046237Y-110234766D01*
X129046237Y-109688530D01*
X128682080Y-109688530D01*
X128317922Y-109688530D01*
X128044804Y-109688530D01*
X127635126Y-109688530D01*
X127225449Y-109688530D01*
X126952330Y-109688530D01*
X126952330Y-109324372D01*
X127635126Y-109324372D01*
G37*
G36*
X129377286Y-98004425D02*
G01*
X129410395Y-98133198D01*
X129361341Y-98278291D01*
X129252121Y-98291471D01*
X129104772Y-98206842D01*
X129060106Y-98075621D01*
X129124306Y-97968208D01*
X129221641Y-97944444D01*
X129377286Y-98004425D01*
G37*
D12*
%TO.C,R3*%
X93152500Y-98123080D02*
X93152500Y-97841920D01*
X94172500Y-98123080D02*
X94172500Y-97841920D01*
%TO.C,C2*%
X118490000Y-87140580D02*
X118490000Y-86859420D01*
X119510000Y-87140580D02*
X119510000Y-86859420D01*
%TO.C,R7*%
X113015000Y-66815580D02*
X113015000Y-66534420D01*
X114035000Y-66815580D02*
X114035000Y-66534420D01*
%TO.C,C4*%
X115065000Y-88565580D02*
X115065000Y-88284420D01*
X116085000Y-88565580D02*
X116085000Y-88284420D01*
%TO.C,R6*%
X111384420Y-76490000D02*
X111665580Y-76490000D01*
X111384420Y-77510000D02*
X111665580Y-77510000D01*
%TO.C,C6*%
X119490000Y-84140580D02*
X119490000Y-83859420D01*
X120510000Y-84140580D02*
X120510000Y-83859420D01*
%TO.C,R1*%
X94209330Y-93366250D02*
X93928170Y-93366250D01*
X94209330Y-94386250D02*
X93928170Y-94386250D01*
%TO.C,J1*%
X100100000Y-58942500D02*
X99050000Y-58942500D01*
X100100000Y-71232500D02*
X99050000Y-71232500D01*
X103270000Y-69487500D02*
X103270000Y-60687500D01*
X103270000Y-69487500D02*
X104025000Y-69487500D01*
%TO.C,J4*%
X83862500Y-103993750D02*
X85567500Y-103993750D01*
X83862500Y-113153750D02*
X83862500Y-103993750D01*
X85567500Y-113153750D02*
X83862500Y-113153750D01*
X87577500Y-113153750D02*
X89497500Y-113153750D01*
X89497500Y-103993750D02*
X87577500Y-103993750D01*
%TO.C,J3*%
X83808750Y-91463750D02*
X85513750Y-91463750D01*
X83808750Y-100623750D02*
X83808750Y-91463750D01*
X85513750Y-100623750D02*
X83808750Y-100623750D01*
X87523750Y-100623750D02*
X89443750Y-100623750D01*
X89443750Y-91463750D02*
X87523750Y-91463750D01*
%TO.C,R4*%
X93946250Y-110841830D02*
X93946250Y-110560670D01*
X94966250Y-110841830D02*
X94966250Y-110560670D01*
%TO.C,R8*%
X114178170Y-62196250D02*
X114459330Y-62196250D01*
X114178170Y-63216250D02*
X114459330Y-63216250D01*
%TO.C,J5*%
X118800000Y-68873750D02*
X120720000Y-68873750D01*
X120720000Y-59713750D02*
X118800000Y-59713750D01*
X122730000Y-59713750D02*
X124435000Y-59713750D01*
X124435000Y-59713750D02*
X124435000Y-68873750D01*
X124435000Y-68873750D02*
X122730000Y-68873750D01*
%TO.C,C8*%
X119859420Y-74240000D02*
X120140580Y-74240000D01*
X119859420Y-75260000D02*
X120140580Y-75260000D01*
%TO.C,24Mhz1*%
X113890000Y-72365000D02*
X113890000Y-75785000D01*
X113890000Y-75785000D02*
X118010000Y-75785000D01*
%TO.C,J2*%
X100100000Y-74817500D02*
X99050000Y-74817500D01*
X100100000Y-87107500D02*
X99050000Y-87107500D01*
X103270000Y-85362500D02*
X103270000Y-76562500D01*
X103270000Y-85362500D02*
X104025000Y-85362500D01*
%TO.C,R5*%
X120140000Y-81103080D02*
X120140000Y-80821920D01*
X121160000Y-81103080D02*
X121160000Y-80821920D01*
%TO.C,R2*%
X93152500Y-103398170D02*
X93152500Y-103679330D01*
X94172500Y-103398170D02*
X94172500Y-103679330D01*
%TO.C,C7*%
X112490000Y-73859420D02*
X112490000Y-74140580D01*
X113510000Y-73859420D02*
X113510000Y-74140580D01*
%TO.C,C1*%
X113490000Y-88365580D02*
X113490000Y-88084420D01*
X114510000Y-88365580D02*
X114510000Y-88084420D01*
%TO.C,C3*%
X116715000Y-88565580D02*
X116715000Y-88284420D01*
X117735000Y-88565580D02*
X117735000Y-88284420D01*
%TO.C,U1*%
X112540000Y-78646250D02*
X113265000Y-78646250D01*
X112540000Y-79371250D02*
X112540000Y-78646250D01*
X112540000Y-84866250D02*
X112540000Y-84141250D01*
X113265000Y-84866250D02*
X112540000Y-84866250D01*
X118035000Y-78646250D02*
X118760000Y-78646250D01*
X118760000Y-78646250D02*
X118760000Y-79371250D01*
X118760000Y-84141250D02*
X118760000Y-84866250D01*
X118760000Y-84866250D02*
X118035000Y-84866250D01*
X112040000Y-79756250D02*
X111710000Y-79996250D01*
X111710000Y-79516250D01*
X112040000Y-79756250D01*
G36*
X112040000Y-79756250D02*
G01*
X111710000Y-79996250D01*
X111710000Y-79516250D01*
X112040000Y-79756250D01*
G37*
%TD*%
M02*
